<svg width="1067" height="450" viewBox="0 0 1067 450" fill="none" xmlns="http://www.w3.org/2000/svg">
<path d="M744.991 122C744.991 118.686 747.677 116 750.991 116H776.5C779.814 116 782.5 118.686 782.5 122V238.531C782.5 252.797 779.489 264.812 773.468 274.577C767.53 284.342 759.292 291.687 748.754 296.612C738.3 301.538 726.257 304 712.625 304C698.993 304 686.867 301.538 676.246 296.612C665.708 291.687 657.428 284.342 651.407 274.577C645.469 264.812 642.5 252.797 642.5 238.531V122C642.5 118.686 645.186 116 648.5 116H674.134C677.448 116 680.134 118.686 680.134 122V238.531C680.134 246.853 681.431 253.646 684.023 258.911C686.616 264.175 690.338 268.039 695.188 270.501C700.122 272.964 705.935 274.195 712.625 274.195C719.483 274.195 725.296 272.964 730.063 270.501C734.913 268.039 738.593 264.175 741.102 258.911C743.695 253.646 744.991 246.853 744.991 238.531V122Z" fill="#7A18CE"/>
<path d="M826.5 191.5V346.75C826.5 350.064 823.814 352.75 820.5 352.75H796.5C793.186 352.75 790.5 350.064 790.5 346.75V171.5C790.5 168.186 793.186 165.5 796.5 165.5H818.45C821.531 165.5 824.11 167.833 824.42 170.897L826.5 191.5ZM912.125 231.625V234.25C912.125 244.083 910.958 253.208 908.625 261.625C906.375 270.042 903.042 277.375 898.625 283.625C894.208 289.792 888.708 294.625 882.125 298.125C875.625 301.542 868.125 303.25 859.625 303.25C851.375 303.25 844.208 301.583 838.125 298.25C832.042 294.917 826.917 290.25 822.75 284.25C818.667 278.167 815.375 271.125 812.875 263.125C810.414 255.25 808.518 246.81 807.188 237.805C807.146 237.519 807.125 237.23 807.125 236.941V230.5C808.458 220.667 810.375 211.667 812.875 203.5C815.375 195.25 818.667 188.125 822.75 182.125C826.917 176.042 832 171.333 838 168C844.083 164.667 851.208 163 859.375 163C867.958 163 875.5 164.625 882 167.875C888.583 171.125 894.083 175.792 898.5 181.875C903 187.958 906.375 195.208 908.625 203.625C910.958 212.042 912.125 221.375 912.125 231.625ZM876 234.25V231.625C876 225.875 875.5 220.583 874.5 215.75C873.583 210.833 872.083 206.542 870 202.875C868 199.208 865.333 196.375 862 194.375C858.75 192.292 854.792 191.25 850.125 191.25C845.208 191.25 841 192.042 837.5 193.625C834.083 195.208 831.292 197.5 829.125 200.5C826.958 203.5 825.333 207.083 824.25 211.25C823.167 215.417 822.5 220.125 822.25 225.375V242.75C822.667 248.917 823.833 254.458 825.75 259.375C827.667 264.208 830.625 268.042 834.625 270.875C838.625 273.708 843.875 275.125 850.375 275.125C855.125 275.125 859.125 274.083 862.375 272C865.625 269.833 868.25 266.875 870.25 263.125C872.333 259.375 873.792 255.042 874.625 250.125C875.542 245.208 876 239.917 876 234.25Z" fill="#7A18CE"/>
<path d="M538.125 115.5C541.439 115.5 544.125 118.186 544.125 121.5V297.125C544.125 300.439 541.439 303.125 538.125 303.125H514.109C510.802 303.125 508.118 300.448 508.109 297.141L507.641 121.516C507.632 118.196 510.321 115.5 513.641 115.5H538.125ZM616.134 167.875C621.292 167.875 624.046 173.953 620.645 177.831L570.625 234.875L544.989 260.816C542.107 263.733 537.213 262.963 535.365 259.302L527.723 244.162C526.672 242.081 526.922 239.579 528.365 237.747L551 209L584.329 169.978C585.469 168.644 587.136 167.875 588.891 167.875H616.134ZM595.284 303.125C593.238 303.125 591.333 302.083 590.23 300.359L554.785 244.976C553.184 242.475 553.653 239.179 555.889 237.225L571.746 223.359C574.467 220.98 578.659 221.529 580.675 224.529L627.218 293.778C629.897 297.764 627.04 303.125 622.238 303.125H595.284Z" fill="black"/>
<path d="M218.625 165.375C221.939 165.375 224.625 168.061 224.625 171.375V184.875C224.625 188.189 221.939 190.875 218.625 190.875H151.875C148.561 190.875 145.875 188.189 145.875 184.875V171.375C145.875 168.061 148.561 165.375 151.875 165.375H218.625ZM165.375 138C165.375 134.686 168.061 132 171.375 132H195.375C198.689 132 201.375 134.686 201.375 138V259.875C201.375 263.792 201.875 266.792 202.875 268.875C203.958 270.958 205.542 272.417 207.625 273.25C209.708 274 212.333 274.375 215.5 274.375C217.75 274.375 219.75 274.292 221.5 274.125V274.125C223.906 273.797 226.136 275.633 226.147 278.061L226.229 295.492C226.242 298.103 224.569 300.447 222.035 301.074C220.185 301.531 218.257 301.923 216.25 302.25C212.667 302.833 208.708 303.125 204.375 303.125C196.458 303.125 189.542 301.833 183.625 299.25C177.792 296.583 173.292 292.333 170.125 286.5C166.958 280.667 165.375 273 165.375 263.5V138Z" fill="black"/>
<path d="M240.5 234.75V232.125C240.5 222.208 241.917 213.083 244.75 204.75C247.583 196.333 251.708 189.042 257.125 182.875C262.542 176.708 269.208 171.917 277.125 168.5C285.042 165 294.125 163.25 304.375 163.25C314.625 163.25 323.75 165 331.75 168.5C339.75 171.917 346.458 176.708 351.875 182.875C357.375 189.042 361.542 196.333 364.375 204.75C367.208 213.083 368.625 222.208 368.625 232.125V234.75C368.625 244.583 367.208 253.708 364.375 262.125C361.542 270.458 357.375 277.75 351.875 284C346.458 290.167 339.792 294.958 331.875 298.375C323.958 301.792 314.875 303.5 304.625 303.5C294.375 303.5 285.25 301.792 277.25 298.375C269.333 294.958 262.625 290.167 257.125 284C251.708 277.75 247.583 270.458 244.75 262.125C241.917 253.708 240.5 244.583 240.5 234.75ZM276.5 232.125V234.75C276.5 240.417 277 245.708 278 250.625C279 255.542 280.583 259.875 282.75 263.625C285 267.292 287.917 270.167 291.5 272.25C295.083 274.333 299.458 275.375 304.625 275.375C309.625 275.375 313.917 274.333 317.5 272.25C321.083 270.167 323.958 267.292 326.125 263.625C328.292 259.875 329.875 255.542 330.875 250.625C331.958 245.708 332.5 240.417 332.5 234.75V232.125C332.5 226.625 331.958 221.458 330.875 216.625C329.875 211.708 328.25 207.375 326 203.625C323.833 199.792 320.958 196.792 317.375 194.625C313.792 192.458 309.458 191.375 304.375 191.375C299.292 191.375 294.958 192.458 291.375 194.625C287.875 196.792 285 199.792 282.75 203.625C280.583 207.375 279 211.708 278 216.625C277 221.458 276.5 226.625 276.5 232.125Z" fill="black"/>
<path d="M444.875 275.125C449.292 275.125 453.208 274.292 456.625 272.625C460.042 270.875 462.708 268.458 464.625 265.375C465.653 263.748 466.427 261.977 466.949 260.064C467.809 256.911 470.366 254.25 473.634 254.25H495.572C498.906 254.25 501.644 256.979 501.224 260.286C500.323 267.371 497.915 273.817 494 279.625C489 286.958 482.292 292.75 473.875 297C465.458 301.167 456.042 303.25 445.625 303.25C435.125 303.25 425.958 301.5 418.125 298C410.375 294.5 403.917 289.667 398.75 283.5C393.583 277.25 389.708 270 387.125 261.75C384.542 253.417 383.25 244.5 383.25 235V231.375C383.25 221.792 384.542 212.875 387.125 204.625C389.708 196.292 393.583 189.042 398.75 182.875C403.917 176.625 410.375 171.75 418.125 168.25C425.875 164.75 434.958 163 445.375 163C456.458 163 466.167 165.125 474.5 169.375C482.917 173.625 489.5 179.708 494.25 187.625C498.154 193.953 500.509 201.232 501.314 209.463C501.638 212.779 498.91 215.5 495.578 215.5H473.64C470.37 215.5 467.779 212.854 467.101 209.655C466.622 207.395 465.88 205.26 464.875 203.25C463.125 199.583 460.542 196.667 457.125 194.5C453.792 192.25 449.667 191.125 444.75 191.125C439.5 191.125 435.208 192.25 431.875 194.5C428.542 196.667 425.958 199.667 424.125 203.5C422.292 207.25 421 211.542 420.25 216.375C419.583 221.125 419.25 226.125 419.25 231.375V235C419.25 240.25 419.583 245.292 420.25 250.125C420.917 254.958 422.167 259.25 424 263C425.917 266.75 428.542 269.708 431.875 271.875C435.208 274.042 439.542 275.125 444.875 275.125Z" fill="black"/>
<path d="M102.375 252.875C102.375 249.625 101.875 246.708 100.875 244.125C99.9583 241.458 98.2083 239.042 95.625 236.875C93.0417 234.625 89.4167 232.417 84.75 230.25C80.0833 228.083 74.0417 225.833 66.625 223.5C58.375 220.833 50.5417 217.833 43.125 214.5C35.7917 211.167 29.2917 207.292 23.625 202.875C18.0417 198.375 13.625 193.167 10.375 187.25C7.20833 181.333 5.625 174.458 5.625 166.625C5.625 159.042 7.29167 152.167 10.625 146C13.9583 139.75 18.625 134.417 24.625 130C30.625 125.5 37.7083 122.042 45.875 119.625C54.125 117.208 63.1667 116 73 116C86.4167 116 98.125 118.417 108.125 123.25C118.125 128.083 125.875 134.708 131.375 143.125C135.907 149.957 138.6 157.585 139.453 166.01C139.787 169.307 137.064 172 133.75 172H108.5C105.186 172 102.579 169.29 101.98 166.03C101.444 163.107 100.492 160.431 99.125 158C96.9583 153.917 93.625 150.708 89.125 148.375C84.7083 146.042 79.125 144.875 72.375 144.875C65.875 144.875 60.4583 145.875 56.125 147.875C51.7917 149.792 48.5417 152.417 46.375 155.75C44.2083 159 43.125 162.667 43.125 166.75C43.125 169.833 43.875 172.625 45.375 175.125C46.9583 177.625 49.2917 179.958 52.375 182.125C55.4583 184.292 59.25 186.333 63.75 188.25C68.25 190.167 73.4583 192.042 79.375 193.875C89.2917 196.875 98 200.25 105.5 204C113.083 207.75 119.417 211.958 124.5 216.625C129.583 221.292 133.417 226.583 136 232.5C138.583 238.417 139.875 245.125 139.875 252.625C139.875 260.542 138.333 267.625 135.25 273.875C132.167 280.125 127.708 285.417 121.875 289.75C116.042 294.083 109.083 297.375 101 299.625C92.9167 301.875 83.875 303 73.875 303C64.875 303 56 301.833 47.25 299.5C38.5 297.083 30.5417 293.458 23.375 288.625C16.2917 283.792 10.625 277.625 6.375 270.125C2.97624 264.127 0.936493 257.25 0.255747 249.494C-0.0339651 246.192 2.68629 243.5 6 243.5H31.625C34.9387 243.5 37.5628 246.199 37.9914 249.485C38.4009 252.625 39.1538 255.422 40.25 257.875C42 261.792 44.4583 264.958 47.625 267.375C50.875 269.792 54.7083 271.542 59.125 272.625C63.625 273.708 68.5417 274.25 73.875 274.25C80.375 274.25 85.7083 273.333 89.875 271.5C94.125 269.667 97.25 267.125 99.25 263.875C101.333 260.625 102.375 256.958 102.375 252.875Z" fill="black"/>
<rect y="367" width="1066" height="83" rx="10" fill="#F0D60B"/>
<path d="M79.7559 391.5V385.455H115.779V391.5H101.256V432H94.2559V391.5H79.7559Z" fill="black"/>
<path d="M123.408 432V397.091H129.977V402.636H130.34C130.977 400.758 132.098 399.28 133.704 398.205C135.325 397.114 137.158 396.568 139.204 396.568C139.628 396.568 140.128 396.583 140.704 396.614C141.295 396.644 141.757 396.682 142.09 396.727V403.227C141.817 403.152 141.333 403.068 140.636 402.977C139.939 402.871 139.242 402.818 138.545 402.818C136.939 402.818 135.507 403.159 134.249 403.841C133.007 404.508 132.022 405.439 131.295 406.636C130.567 407.818 130.204 409.167 130.204 410.682V432H123.408Z" fill="black"/>
<path d="M179.743 394.659H184.993C184.993 398.235 184.182 401.061 182.561 403.136C180.955 405.197 178.212 406.227 174.334 406.227V402.409C175.879 402.409 177.038 402.091 177.811 401.455C178.584 400.803 179.099 399.902 179.356 398.75C179.614 397.583 179.743 396.22 179.743 394.659ZM165.265 432.705C161.993 432.705 159.137 431.955 156.697 430.455C154.258 428.955 152.364 426.856 151.015 424.159C149.667 421.462 148.993 418.311 148.993 414.705C148.993 411.083 149.667 407.917 151.015 405.205C152.364 402.492 154.258 400.386 156.697 398.886C159.137 397.386 161.993 396.636 165.265 396.636C168.538 396.636 171.394 397.386 173.834 398.886C176.273 400.386 178.167 402.492 179.515 405.205C180.864 407.917 181.538 411.083 181.538 414.705C181.538 418.311 180.864 421.462 179.515 424.159C178.167 426.856 176.273 428.955 173.834 430.455C171.394 431.955 168.538 432.705 165.265 432.705ZM165.288 427C167.409 427 169.167 426.439 170.561 425.318C171.955 424.197 172.985 422.705 173.652 420.841C174.334 418.977 174.674 416.924 174.674 414.682C174.674 412.455 174.334 410.409 173.652 408.545C172.985 406.667 171.955 405.159 170.561 404.023C169.167 402.886 167.409 402.318 165.288 402.318C163.152 402.318 161.379 402.886 159.97 404.023C158.576 405.159 157.538 406.667 156.856 408.545C156.19 410.409 155.856 412.455 155.856 414.682C155.856 416.924 156.19 418.977 156.856 420.841C157.538 422.705 158.576 424.197 159.97 425.318C161.379 426.439 163.152 427 165.288 427ZM165.265 444.045C164.099 444.045 163.091 443.652 162.243 442.864C161.394 442.076 160.97 441.121 160.97 440C160.97 438.879 161.394 437.924 162.243 437.136C163.091 436.348 164.099 435.955 165.265 435.955C166.447 435.955 167.455 436.348 168.288 437.136C169.137 437.924 169.561 438.879 169.561 440C169.561 441.121 169.137 442.076 168.288 442.864C167.455 443.652 166.447 444.045 165.265 444.045Z" fill="black"/>
<path d="M220.974 385.455V432H214.178V385.455H220.974Z" fill="black"/>
<path d="M238.251 445.091C237.236 445.091 236.312 445.008 235.479 444.841C234.645 444.689 234.024 444.523 233.615 444.341L235.251 438.773C236.494 439.106 237.6 439.25 238.569 439.205C239.539 439.159 240.395 438.795 241.138 438.114C241.895 437.432 242.562 436.318 243.138 434.773L243.979 432.455L231.206 397.091H238.479L247.319 424.182H247.683L256.524 397.091H263.819L249.433 436.659C248.766 438.477 247.918 440.015 246.888 441.273C245.857 442.545 244.63 443.5 243.206 444.136C241.782 444.773 240.13 445.091 238.251 445.091ZM244.683 392.432L250.001 381.955H257.16L250.115 392.432H244.683Z" fill="black"/>
<path d="M307.892 432.682C305.073 432.682 302.558 431.962 300.346 430.523C298.149 429.068 296.422 427 295.164 424.318C293.922 421.621 293.301 418.386 293.301 414.614C293.301 410.841 293.929 407.614 295.187 404.932C296.46 402.25 298.202 400.197 300.414 398.773C302.626 397.348 305.134 396.636 307.937 396.636C310.104 396.636 311.846 397 313.164 397.727C314.498 398.439 315.528 399.273 316.255 400.227C316.998 401.182 317.573 402.023 317.982 402.75H318.392V385.455H325.187V432H318.551V426.568H317.982C317.573 427.311 316.982 428.159 316.21 429.114C315.452 430.068 314.407 430.902 313.073 431.614C311.74 432.326 310.013 432.682 307.892 432.682ZM309.392 426.886C311.346 426.886 312.998 426.371 314.346 425.341C315.71 424.295 316.74 422.848 317.437 421C318.149 419.152 318.505 417 318.505 414.545C318.505 412.121 318.157 410 317.46 408.182C316.763 406.364 315.74 404.947 314.392 403.932C313.043 402.917 311.376 402.409 309.392 402.409C307.346 402.409 305.642 402.939 304.278 404C302.914 405.061 301.884 406.508 301.187 408.341C300.505 410.174 300.164 412.242 300.164 414.545C300.164 416.879 300.513 418.977 301.21 420.841C301.907 422.705 302.937 424.182 304.301 425.273C305.679 426.348 307.376 426.886 309.392 426.886ZM308.96 394.295V389.591H329.846V394.295H308.96Z" fill="black"/>
<path d="M348.885 432.773C346.673 432.773 344.673 432.364 342.885 431.545C341.097 430.712 339.68 429.508 338.635 427.932C337.605 426.356 337.09 424.424 337.09 422.136C337.09 420.167 337.468 418.545 338.226 417.273C338.983 416 340.006 414.992 341.294 414.25C342.582 413.508 344.021 412.947 345.612 412.568C347.203 412.189 348.824 411.902 350.476 411.705C352.567 411.462 354.264 411.265 355.567 411.114C356.87 410.947 357.817 410.682 358.408 410.318C358.999 409.955 359.294 409.364 359.294 408.545V408.386C359.294 406.402 358.733 404.864 357.612 403.773C356.506 402.682 354.855 402.136 352.658 402.136C350.37 402.136 348.567 402.644 347.249 403.659C345.946 404.659 345.044 405.773 344.544 407L338.158 405.545C338.915 403.424 340.021 401.712 341.476 400.409C342.946 399.091 344.635 398.136 346.544 397.545C348.453 396.939 350.461 396.636 352.567 396.636C353.961 396.636 355.438 396.803 356.999 397.136C358.574 397.455 360.044 398.045 361.408 398.909C362.786 399.773 363.915 401.008 364.794 402.614C365.673 404.205 366.112 406.273 366.112 408.818V432H359.476V427.227H359.203C358.764 428.106 358.105 428.97 357.226 429.818C356.347 430.667 355.218 431.371 353.84 431.932C352.461 432.492 350.809 432.773 348.885 432.773ZM350.362 427.318C352.241 427.318 353.847 426.947 355.18 426.205C356.529 425.462 357.552 424.492 358.249 423.295C358.961 422.083 359.317 420.788 359.317 419.409V414.909C359.074 415.152 358.605 415.379 357.908 415.591C357.226 415.788 356.446 415.962 355.567 416.114C354.688 416.25 353.832 416.379 352.999 416.5C352.165 416.606 351.468 416.697 350.908 416.773C349.59 416.939 348.385 417.22 347.294 417.614C346.218 418.008 345.355 418.576 344.703 419.318C344.067 420.045 343.749 421.015 343.749 422.227C343.749 423.909 344.37 425.182 345.612 426.045C346.855 426.894 348.438 427.318 350.362 427.318ZM355.408 385.136L364.68 393.023H357.976L352.93 388.523L347.862 393.023H341.18L350.34 385.136H355.408ZM338.862 379.636L343.544 387.977H338.658L331.885 379.636H338.862Z" fill="black"/>
<path d="M401.117 417.523V397.091H407.935V432H401.253V425.955H400.89C400.087 427.818 398.799 429.371 397.026 430.614C395.269 431.841 393.079 432.455 390.458 432.455C388.215 432.455 386.231 431.962 384.503 430.977C382.791 429.977 381.443 428.5 380.458 426.545C379.488 424.591 379.003 422.174 379.003 419.295V397.091H385.799V418.477C385.799 420.856 386.458 422.75 387.776 424.159C389.094 425.568 390.806 426.273 392.912 426.273C394.185 426.273 395.45 425.955 396.708 425.318C397.981 424.682 399.034 423.72 399.867 422.432C400.715 421.144 401.132 419.508 401.117 417.523Z" fill="black"/>
<path d="M457.979 397.091V402.545H438.911V397.091H457.979ZM444.024 388.727H450.82V421.75C450.82 423.068 451.017 424.061 451.411 424.727C451.805 425.379 452.312 425.826 452.933 426.068C453.57 426.295 454.259 426.409 455.002 426.409C455.547 426.409 456.024 426.371 456.433 426.295C456.842 426.22 457.161 426.159 457.388 426.114L458.615 431.727C458.221 431.879 457.661 432.03 456.933 432.182C456.206 432.348 455.297 432.439 454.206 432.455C452.418 432.485 450.752 432.167 449.206 431.5C447.661 430.833 446.411 429.803 445.456 428.409C444.502 427.015 444.024 425.265 444.024 423.159V388.727Z" fill="black"/>
<path d="M502.609 395.409H507.631C507.616 397.833 507.275 399.864 506.609 401.5C505.957 403.121 504.821 404.341 503.199 405.159C501.578 405.977 499.328 406.386 496.449 406.386V402.455C498.404 402.455 499.806 402.212 500.654 401.727C501.518 401.227 502.056 400.462 502.268 399.432C502.495 398.386 502.609 397.045 502.609 395.409ZM491.54 417.523V397.091H498.336V432H491.654V425.955H491.29C490.487 427.818 489.207 429.371 487.449 430.614C485.692 431.841 483.495 432.455 480.859 432.455C478.631 432.455 476.654 431.962 474.927 430.977C473.199 429.977 471.843 428.5 470.859 426.545C469.889 424.591 469.404 422.174 469.404 419.295V397.091H476.199V418.477C476.199 420.856 476.859 422.75 478.177 424.159C479.51 425.568 481.222 426.273 483.313 426.273C484.586 426.273 485.851 425.955 487.109 425.318C488.381 424.682 489.434 423.72 490.268 422.432C491.116 421.144 491.54 419.508 491.54 417.523Z" fill="black"/>
<path d="M550.345 432.705C546.967 432.705 544.058 431.939 541.618 430.409C539.194 428.864 537.33 426.735 536.027 424.023C534.724 421.311 534.073 418.205 534.073 414.705C534.073 411.159 534.739 408.03 536.073 405.318C537.406 402.591 539.285 400.462 541.709 398.932C544.133 397.402 546.989 396.636 550.277 396.636C552.929 396.636 555.292 397.129 557.368 398.114C559.444 399.083 561.118 400.447 562.391 402.205C563.679 403.962 564.444 406.015 564.686 408.364H558.073C557.709 406.727 556.876 405.318 555.573 404.136C554.285 402.955 552.558 402.364 550.391 402.364C548.497 402.364 546.838 402.864 545.414 403.864C544.004 404.848 542.906 406.258 542.118 408.091C541.33 409.909 540.936 412.061 540.936 414.545C540.936 417.091 541.323 419.288 542.095 421.136C542.868 422.985 543.959 424.417 545.368 425.432C546.792 426.447 548.467 426.955 550.391 426.955C551.679 426.955 552.845 426.72 553.891 426.25C554.951 425.765 555.838 425.076 556.55 424.182C557.277 423.288 557.785 422.212 558.073 420.955H564.686C564.444 423.212 563.709 425.227 562.482 427C561.255 428.773 559.611 430.167 557.55 431.182C555.505 432.197 553.103 432.705 550.345 432.705Z" fill="black"/>
<path d="M582.589 411.273V432H575.793V385.455H582.498V402.773H582.93C583.748 400.894 584.998 399.402 586.68 398.295C588.362 397.189 590.559 396.636 593.271 396.636C595.665 396.636 597.755 397.129 599.543 398.114C601.346 399.098 602.74 400.568 603.725 402.523C604.725 404.462 605.225 406.886 605.225 409.795V432H598.43V410.614C598.43 408.053 597.771 406.068 596.452 404.659C595.134 403.235 593.301 402.523 590.952 402.523C589.346 402.523 587.907 402.864 586.634 403.545C585.377 404.227 584.384 405.227 583.657 406.545C582.945 407.848 582.589 409.424 582.589 411.273Z" fill="black"/>
<path d="M651.406 395.409H656.429C656.414 397.833 656.073 399.864 655.406 401.5C654.755 403.121 653.618 404.341 651.997 405.159C650.376 405.977 648.126 406.386 645.247 406.386V402.455C647.202 402.455 648.603 402.212 649.452 401.727C650.315 401.227 650.853 400.462 651.065 399.432C651.292 398.386 651.406 397.045 651.406 395.409ZM640.338 417.523V397.091H647.133V432H640.452V425.955H640.088C639.285 427.818 638.005 429.371 636.247 430.614C634.489 431.841 632.292 432.455 629.656 432.455C627.429 432.455 625.452 431.962 623.724 430.977C621.997 429.977 620.641 428.5 619.656 426.545C618.686 424.591 618.202 422.174 618.202 419.295V397.091H624.997V418.477C624.997 420.856 625.656 422.75 626.974 424.159C628.308 425.568 630.02 426.273 632.111 426.273C633.383 426.273 634.648 425.955 635.906 425.318C637.179 424.682 638.232 423.72 639.065 422.432C639.914 421.144 640.338 419.508 640.338 417.523ZM629.906 392.432L635.224 381.955H642.383L635.338 392.432H629.906Z" fill="black"/>
<path d="M670.456 411.273V432H663.661V397.091H670.184V402.773H670.615C671.418 400.924 672.676 399.439 674.388 398.318C676.115 397.197 678.29 396.636 680.911 396.636C683.29 396.636 685.373 397.136 687.161 398.136C688.949 399.121 690.335 400.591 691.32 402.545C692.305 404.5 692.797 406.917 692.797 409.795V432H686.002V410.614C686.002 408.083 685.343 406.106 684.024 404.682C682.706 403.242 680.896 402.523 678.593 402.523C677.017 402.523 675.615 402.864 674.388 403.545C673.176 404.227 672.214 405.227 671.502 406.545C670.805 407.848 670.456 409.424 670.456 411.273Z" fill="black"/>
<path d="M720.387 445.818C717.614 445.818 715.228 445.455 713.228 444.727C711.243 444 709.622 443.038 708.365 441.841C707.107 440.644 706.168 439.333 705.546 437.909L711.387 435.5C711.796 436.167 712.342 436.871 713.024 437.614C713.721 438.371 714.66 439.015 715.842 439.545C717.039 440.076 718.577 440.341 720.455 440.341C723.031 440.341 725.16 439.712 726.842 438.455C728.524 437.212 729.365 435.227 729.365 432.5V425.636H728.933C728.524 426.379 727.933 427.205 727.16 428.114C726.402 429.023 725.357 429.811 724.024 430.477C722.69 431.144 720.955 431.477 718.819 431.477C716.061 431.477 713.577 430.833 711.365 429.545C709.168 428.242 707.425 426.326 706.137 423.795C704.864 421.25 704.228 418.121 704.228 414.409C704.228 410.697 704.857 407.515 706.115 404.864C707.387 402.212 709.13 400.182 711.342 398.773C713.554 397.348 716.061 396.636 718.865 396.636C721.031 396.636 722.781 397 724.115 397.727C725.448 398.439 726.486 399.273 727.228 400.227C727.986 401.182 728.569 402.023 728.978 402.75H729.478V397.091H736.137V432.773C736.137 435.773 735.44 438.235 734.046 440.159C732.652 442.083 730.766 443.508 728.387 444.432C726.024 445.356 723.357 445.818 720.387 445.818ZM720.319 425.841C722.274 425.841 723.925 425.386 725.274 424.477C726.637 423.553 727.668 422.235 728.365 420.523C729.077 418.795 729.433 416.727 729.433 414.318C729.433 411.97 729.084 409.902 728.387 408.114C727.69 406.326 726.668 404.932 725.319 403.932C723.971 402.917 722.304 402.409 720.319 402.409C718.274 402.409 716.569 402.939 715.205 404C713.842 405.045 712.811 406.47 712.115 408.273C711.433 410.076 711.092 412.091 711.092 414.318C711.092 416.606 711.44 418.614 712.137 420.341C712.834 422.068 713.865 423.417 715.228 424.386C716.607 425.356 718.304 425.841 720.319 425.841Z" fill="black"/>
<path d="M776.118 420.159L776.073 411.864H777.255L791.164 397.091H799.3L783.437 413.909H782.368L776.118 420.159ZM769.868 432V385.455H776.664V432H769.868ZM791.914 432L779.414 415.409L784.096 410.659L800.255 432H791.914Z" fill="black"/>
<path d="M816.129 411.273V432H809.333V385.455H816.038V402.773H816.47C817.288 400.894 818.538 399.402 820.22 398.295C821.902 397.189 824.099 396.636 826.811 396.636C829.205 396.636 831.295 397.129 833.083 398.114C834.886 399.098 836.28 400.568 837.265 402.523C838.265 404.462 838.765 406.886 838.765 409.795V432H831.97V410.614C831.97 408.053 831.311 406.068 829.992 404.659C828.674 403.235 826.841 402.523 824.492 402.523C822.886 402.523 821.447 402.864 820.174 403.545C818.917 404.227 817.924 405.227 817.197 406.545C816.485 407.848 816.129 409.424 816.129 411.273Z" fill="black"/>
<path d="M866.378 432.705C863.105 432.705 860.249 431.955 857.81 430.455C855.37 428.955 853.476 426.856 852.128 424.159C850.779 421.462 850.105 418.311 850.105 414.705C850.105 411.083 850.779 407.917 852.128 405.205C853.476 402.492 855.37 400.386 857.81 398.886C860.249 397.386 863.105 396.636 866.378 396.636C869.651 396.636 872.507 397.386 874.946 398.886C877.385 400.386 879.279 402.492 880.628 405.205C881.976 407.917 882.651 411.083 882.651 414.705C882.651 418.311 881.976 421.462 880.628 424.159C879.279 426.856 877.385 428.955 874.946 430.455C872.507 431.955 869.651 432.705 866.378 432.705ZM866.401 427C868.522 427 870.279 426.439 871.673 425.318C873.067 424.197 874.098 422.705 874.764 420.841C875.446 418.977 875.787 416.924 875.787 414.682C875.787 412.455 875.446 410.409 874.764 408.545C874.098 406.667 873.067 405.159 871.673 404.023C870.279 402.886 868.522 402.318 866.401 402.318C864.264 402.318 862.492 402.886 861.082 404.023C859.689 405.159 858.651 406.667 857.969 408.545C857.302 410.409 856.969 412.455 856.969 414.682C856.969 416.924 857.302 418.977 857.969 420.841C858.651 422.705 859.689 424.197 861.082 425.318C862.492 426.439 864.264 427 866.401 427Z" fill="black"/>
<path d="M904.235 432.773C902.023 432.773 900.023 432.364 898.235 431.545C896.447 430.712 895.03 429.508 893.985 427.932C892.955 426.356 892.44 424.424 892.44 422.136C892.44 420.167 892.818 418.545 893.576 417.273C894.333 416 895.356 414.992 896.644 414.25C897.932 413.508 899.371 412.947 900.962 412.568C902.553 412.189 904.174 411.902 905.826 411.705C907.917 411.462 909.614 411.265 910.917 411.114C912.22 410.947 913.167 410.682 913.758 410.318C914.349 409.955 914.644 409.364 914.644 408.545V408.386C914.644 406.402 914.083 404.864 912.962 403.773C911.856 402.682 910.205 402.136 908.008 402.136C905.72 402.136 903.917 402.644 902.599 403.659C901.296 404.659 900.394 405.773 899.894 407L893.508 405.545C894.265 403.424 895.371 401.712 896.826 400.409C898.296 399.091 899.985 398.136 901.894 397.545C903.803 396.939 905.811 396.636 907.917 396.636C909.311 396.636 910.788 396.803 912.349 397.136C913.924 397.455 915.394 398.045 916.758 398.909C918.136 399.773 919.265 401.008 920.144 402.614C921.023 404.205 921.462 406.273 921.462 408.818V432H914.826V427.227H914.553C914.114 428.106 913.455 428.97 912.576 429.818C911.697 430.667 910.568 431.371 909.19 431.932C907.811 432.492 906.159 432.773 904.235 432.773ZM905.712 427.318C907.591 427.318 909.197 426.947 910.53 426.205C911.879 425.462 912.902 424.492 913.599 423.295C914.311 422.083 914.667 420.788 914.667 419.409V414.909C914.424 415.152 913.955 415.379 913.258 415.591C912.576 415.788 911.796 415.962 910.917 416.114C910.038 416.25 909.182 416.379 908.349 416.5C907.515 416.606 906.818 416.697 906.258 416.773C904.94 416.939 903.735 417.22 902.644 417.614C901.568 418.008 900.705 418.576 900.053 419.318C899.417 420.045 899.099 421.015 899.099 422.227C899.099 423.909 899.72 425.182 900.962 426.045C902.205 426.894 903.788 427.318 905.712 427.318ZM905.462 392.432L910.78 381.955H917.94L910.894 392.432H905.462Z" fill="black"/>
<path d="M941.149 411.273V432H934.353V397.091H940.876V402.773H941.308C942.111 400.924 943.369 399.439 945.081 398.318C946.808 397.197 948.982 396.636 951.603 396.636C953.982 396.636 956.065 397.136 957.853 398.136C959.641 399.121 961.028 400.591 962.012 402.545C962.997 404.5 963.49 406.917 963.49 409.795V432H956.694V410.614C956.694 408.083 956.035 406.106 954.717 404.682C953.399 403.242 951.588 402.523 949.285 402.523C947.709 402.523 946.308 402.864 945.081 403.545C943.869 404.227 942.906 405.227 942.194 406.545C941.497 407.848 941.149 409.424 941.149 411.273Z" fill="black"/>
<path d="M980.921 432.432C979.678 432.432 978.61 431.992 977.716 431.114C976.822 430.22 976.375 429.144 976.375 427.886C976.375 426.644 976.822 425.583 977.716 424.705C978.61 423.811 979.678 423.364 980.921 423.364C982.163 423.364 983.231 423.811 984.125 424.705C985.019 425.583 985.466 426.644 985.466 427.886C985.466 428.72 985.254 429.485 984.83 430.182C984.421 430.864 983.875 431.409 983.193 431.818C982.512 432.227 981.754 432.432 980.921 432.432Z" fill="black"/>
<path d="M809.967 151.168C808.448 152.687 806.001 152.735 804.424 151.278L794.062 141.703C792.392 140.159 792.343 137.536 793.954 135.931L878.692 51.5317C880.255 49.9749 882.783 49.9775 884.343 51.5373L939.403 106.598C940.966 108.16 943.498 108.16 945.06 106.598L1023.02 28.6409C1025.54 26.1211 1023.75 21.8125 1020.19 21.8125H987.676C985.467 21.8125 983.676 20.0216 983.676 17.8125V4C983.676 1.79086 985.467 0 987.676 0H1062.2C1064.41 0 1066.2 1.79086 1066.2 4V78.524C1066.2 80.7331 1064.41 82.524 1062.2 82.524H1048.75C1046.54 82.524 1044.75 80.7331 1044.75 78.524V47.4652C1044.75 43.9016 1040.44 42.1169 1037.92 44.6368L944.697 137.862C943.135 139.424 940.602 139.424 939.04 137.862L883.985 82.8076C882.423 81.2455 879.891 81.2455 878.328 82.8076L809.967 151.168Z" fill="black"/>
</svg>
